<?xml version="1.0" encoding="UTF-8"?>
<svg id="Layer_1" data-name="Layer 1" xmlns="http://www.w3.org/2000/svg" width="22.92" height="22.92" viewBox="0 0 22.92 22.92">
  <path d="M10.15,22.92c-.49,0-.94-.19-1.28-.53L.53,14.05c-.34-.34-.53-.79-.53-1.28s.19-.94.53-1.28L11.43.59c.3-.3.71-.49,1.22-.55.18-.02.37-.03.54-.03h7.62c1.16,0,2.1.94,2.1,2.1v7.31c0,.28,0,.57-.03.85-.07.51-.25.92-.55,1.22l-10.91,10.9c-.34.34-.79.53-1.28.53ZM13.23,1.8c-.12,0-.23.01-.33.03-.15.02-.19.04-.19.04L1.8,12.76l8.3,8.3.07.09,10.89-10.95s.01-.04.03-.16c.03-.21.03-.49.03-.8V2.1c0-.17-.13-.3-.3-.3h-7.46s-.13,0-.13,0ZM18.18,7.08c-1.29,0-2.34-1.05-2.34-2.34s1.05-2.34,2.34-2.34,2.34,1.05,2.34,2.34-1.05,2.34-2.34,2.34ZM18.18,4.2c-.3,0-.54.24-.54.54s.24.54.54.54.54-.24.54-.54-.24-.54-.54-.54Z" style="stroke-width: 0px;"/>
  <path d="M13.2.42c-.16,0-.33,0-.49.03-.33.04-.7.16-.98.43L.82,11.79c-.54.54-.54,1.43,0,1.97l8.34,8.34c.54.54,1.43.54,1.97,0l10.9-10.9c.28-.28.39-.64.44-.97s.03-.66.03-.98V2.1c0-.92-.76-1.68-1.68-1.68h-7.14c-.16,0-.32,0-.48,0ZM13.21,1.38c.14,0,.3,0,.46,0h7.14c.4,0,.72.32.72.72v7.14c0,.33,0,.64-.03.85s-.07.33-.15.4l-10.9,10.92c-.17.17-.44.17-.61,0l-.06-.07L1.5,13.08c-.17-.17-.17-.44,0-.61L12.42,1.56c.07-.07.2-.12.42-.15.11-.01.23-.03.37-.03ZM18.18,2.82c-1.06,0-1.92.86-1.92,1.92s.86,1.92,1.92,1.92,1.92-.86,1.92-1.92-.86-1.92-1.92-1.92ZM18.18,3.78c.54,0,.96.42.96.96s-.42.96-.96.96-.96-.42-.96-.96.42-.96.96-.96Z" style="stroke-width: 0px;"/>
</svg>